<svg xmlns="http://www.w3.org/2000/svg" width="32" height="32" fill="none"><path fill="url(#a)" d="M16 29a13 13 0 1 0 0-26 13 13 0 0 0 0 26Z"/><path fill="url(#b)" d="M16 29a13 13 0 1 0 0-26 13 13 0 0 0 0 26Z"/><path fill="url(#c)" d="M16 3a13 13 0 1 0 0 26 13 13 0 0 0 0-26Zm0 26a13 13 0 1 1 0-26 13 13 0 0 1 0 26Z"/><path fill="url(#d)" d="M16 28a12 12 0 1 0 0-24 12 12 0 0 0 0 24Z"/><path fill="url(#e)" d="M16 27a11 11 0 1 0 0-22 11 11 0 0 0 0 22Z"/><path fill="url(#f)" d="M16 27a11 11 0 1 0 0-22 11 11 0 0 0 0 22Z"/><path fill="url(#g)" d="m27 17-11-1 11-1-1-3-10 4 9-6-1-2-8 8 6-9-2-1-4 10 1-11a11 11 0 0 0-2 0l1 11-4-10-2 1 6 9-8-7-1 1 9 6-10-3-1 2 11 1-11 1 1 2 10-3-9 6 1 2 8-8-6 9 2 1 4-10-1 11a11 11 0 0 0 2 0l-1-11 4 10 2-1-6-9 8 7 1-1-9-6 10 3 1-2Z"/><path fill="url(#h)" d="M16 22a6 6 0 1 0 0-12 6 6 0 0 0 0 12Z"/><path fill="url(#i)" d="M16 22a6 6 0 1 0 0-12 6 6 0 0 0 0 12Z"/><path fill="url(#j)" d="m27 21-8-8a5 5 0 0 0-8 3l2 3 8 8c3-1 5-3 6-6Z"/><path fill="url(#k)" d="m10 17 3 2v-2h-3Z"/><path fill="url(#l)" d="m17 11 2 1h-3v-1h1Z"/><path fill="url(#m)" d="M16 21a5 5 0 1 0 0-10 5 5 0 0 0 0 10Z"/><path fill="url(#n)" d="M16 20a4 4 0 1 0 0-8 4 4 0 0 0 0 8Z"/><path fill="url(#o)" d="m18 12 1 2a5 5 0 0 1-7 4 5 5 0 1 0 6-6Z"/><path fill="url(#p)" d="M19 14c0 1-1 2-3 2s-3-1-3-2 1-2 3-2 3 1 3 2Z"/><path fill="url(#q)" d="M21 16H11l1 1 3 3a5 5 0 0 0 6-4Z"/><path fill="url(#r)" d="m20 15-3-3-1-1v5h5l-1-1Z"/><path fill="url(#s)" d="M15 11h2v10h-2V11Z"/><path fill="url(#t)" d="M16 11h1v10h-1V11Z"/><path fill="url(#u)" d="M17 13v-2h-2v1l2 1Z"/><path fill="url(#v)" d="M17 19v-3h-2v2l2 1Z"/><path fill="url(#w)" d="M16 12a1 1 0 1 0 0-2 1 1 0 0 0 0 2Z"/><path fill="url(#x)" d="M16 12a1 1 0 1 0 0-2 1 1 0 0 0 0 2Z"/><path fill="url(#y)" d="m16 10 1 1a1 1 0 0 1-2 0 1 1 0 1 0 1-1Z"/><path fill="url(#z)" d="M17 11h-2l1-1 1 1Z"/><path fill="url(#A)" d="M16 22a1 1 0 1 0 0-2 1 1 0 0 0 0 2Z"/><path fill="url(#B)" d="M16 22a1 1 0 1 0 0-2 1 1 0 0 0 0 2Z"/><path fill="url(#C)" d="M16 20a1 1 0 0 1 0 1h-1a1 1 0 1 0 1-1Z"/><path fill="url(#D)" d="M17 21h-2l1-1 1 1Z"/><path fill="url(#E)" d="M21 17v-2H11v2h10Z"/><path fill="url(#F)" d="M21 17v-1H11v1h10Z"/><path fill="url(#G)" d="M11 17h2l-1-2h-1v2Z"/><path fill="url(#H)" d="M16 17h3l-1-2h-2v2Z"/><path fill="url(#I)" d="M21 17a1 1 0 1 0 0-2 1 1 0 0 0 0 2Z"/><path fill="url(#J)" d="M21 17a1 1 0 1 0 0-2 1 1 0 0 0 0 2Z"/><path fill="url(#K)" d="M21 15v1a1 1 0 0 1-1 0 1 1 0 1 0 1-1Z"/><path fill="url(#L)" d="M22 16h-2l1-1 1 1Z"/><path fill="url(#M)" d="M11 17a1 1 0 1 0 0-2 1 1 0 0 0 0 2Z"/><path fill="url(#N)" d="M11 17a1 1 0 1 0 0-2 1 1 0 0 0 0 2Z"/><path fill="url(#O)" d="M11 15a1 1 0 0 1 0 1 1 1 0 0 1-1 0 1 1 0 1 0 1-1Z"/><path fill="url(#P)" d="M12 16h-2l1-1 1 1Z"/><path fill="url(#Q)" d="M16 18a2 2 0 1 0 0-4 2 2 0 0 0 0 4Z"/><path fill="url(#R)" d="M16 17a1 1 0 1 0 0-2 1 1 0 0 0 0 2Z"/><path fill="url(#S)" d="M17 15a2 2 0 0 1-2 2 2 2 0 1 0 2-2Z"/><path fill="url(#T)" d="m17 15-1 1-1-1h2Z"/><path fill="url(#U)" d="m24 10-2-2a1 1 0 0 0-1 1v1l2 2 1-2Z"/><path fill="url(#V)" d="M23 9a1 1 0 1 1-2 0 1 1 0 0 1 2 0Z"/><path fill="url(#W)" d="M23 9a1 1 0 1 1-2 0 1 1 0 0 1 2 0Z"/><path fill="url(#X)" d="M22 8a1 1 0 0 1-1 1 1 1 0 1 0 1-1Z"/><path fill="url(#Y)" d="M22 8v1l-1-1h1Z"/><path fill="url(#Z)" d="m17 26-2-2a1 1 0 0 0-2 1l2 2 2-1Z"/><path fill="url(#aa)" d="M14 26a1 1 0 1 0 0-2 1 1 0 0 0 0 2Z"/><path fill="url(#ab)" d="M14 26a1 1 0 1 0 0-2 1 1 0 0 0 0 2Z"/><path fill="url(#ac)" d="M15 24a1 1 0 0 1-2 1 1 1 0 1 0 2-1Z"/><path fill="url(#ad)" d="m15 24-1 1-1-1h2Z"/><path fill="url(#ae)" d="M16 29a13 13 0 1 0 0-26 13 13 0 0 0 0 26Z"/><defs><linearGradient id="a" x1="6.1" x2="25.7" y1="6.1" y2="25.7" gradientUnits="userSpaceOnUse"><stop stop-color="#FFD945"/><stop offset=".3" stop-color="#FFCD3E"/><stop offset=".9" stop-color="#FFAD2B"/><stop offset="1" stop-color="#FFA325"/></linearGradient><linearGradient id="b" x1="16.6" x2="6.3" y1="16.6" y2="6.3" gradientUnits="userSpaceOnUse"><stop stop-color="#FFD945" stop-opacity="0"/><stop offset="1" stop-color="#FBED21"/></linearGradient><linearGradient id="c" x1="16.2" x2="32.8" y1="16.2" y2="31.9" gradientUnits="userSpaceOnUse"><stop stop-color="#E87264" stop-opacity="0"/><stop offset="1" stop-color="#FF7044"/></linearGradient><linearGradient id="d" x1="23.5" x2="7.3" y1="23.5" y2="7.3" gradientUnits="userSpaceOnUse"><stop stop-color="#8A7889"/><stop offset="1" stop-color="#6E566E"/></linearGradient><linearGradient id="e" x1="9" x2="24.1" y1="9" y2="24.1" gradientUnits="userSpaceOnUse"><stop stop-color="#8A7889"/><stop offset="1" stop-color="#6E566E"/></linearGradient><linearGradient id="h" x1="13.6" x2="22.7" y1="13.6" y2="22.7" gradientUnits="userSpaceOnUse"><stop stop-color="#4AB272"/><stop offset="1" stop-color="#077565"/></linearGradient><linearGradient id="j" x1="20.3" x2="14.4" y1="20.3" y2="14.7" gradientUnits="userSpaceOnUse"><stop stop-color="#005A01" stop-opacity="0"/><stop offset="1" stop-color="#005A01"/></linearGradient><linearGradient id="k" x1="12.8" x2="10.8" y1="18.7" y2="15.3" gradientUnits="userSpaceOnUse"><stop stop-color="#005A01" stop-opacity="0"/><stop offset="1" stop-color="#005A01"/></linearGradient><linearGradient id="l" x1="17.4" x2="15.8" y1="12.6" y2="9.8" gradientUnits="userSpaceOnUse"><stop stop-color="#005A01" stop-opacity="0"/><stop offset="1" stop-color="#005A01"/></linearGradient><linearGradient id="n" x1="16.8" x2="11.4" y1="16.8" y2="11.4" gradientUnits="userSpaceOnUse"><stop stop-color="#FFD945" stop-opacity="0"/><stop offset="1" stop-color="#FBED21"/></linearGradient><linearGradient id="o" x1="17.9" x2="26.3" y1="16.2" y2="9" gradientUnits="userSpaceOnUse"><stop stop-color="#E87264" stop-opacity="0"/><stop offset="1" stop-color="#FF7044"/></linearGradient><linearGradient id="p" x1="16" x2="16" y1="14.6" y2="10.3" gradientUnits="userSpaceOnUse"><stop stop-color="#fff" stop-opacity="0"/><stop offset="1" stop-color="#fff"/></linearGradient><linearGradient id="q" x1="16.5" x2="15.7" y1="19.3" y2="14.5" gradientUnits="userSpaceOnUse"><stop stop-color="#E87264" stop-opacity="0"/><stop offset="1" stop-color="#FF7044"/></linearGradient><linearGradient id="r" x1="18.3" x2="15.5" y1="14" y2="13.5" gradientUnits="userSpaceOnUse"><stop stop-color="#E87264" stop-opacity="0"/><stop offset="1" stop-color="#FF7044"/></linearGradient><linearGradient id="s" x1="15.5" x2="16.3" y1="16" y2="16" gradientUnits="userSpaceOnUse"><stop stop-color="#FFD945"/><stop offset=".4" stop-color="#FFD744"/><stop offset=".6" stop-color="#FFCF3F"/><stop offset=".8" stop-color="#FFC237"/><stop offset=".9" stop-color="#FFAF2C"/><stop offset="1" stop-color="#FFA325"/></linearGradient><linearGradient id="t" x1="16.4" x2="15.1" y1="16" y2="15.9" gradientUnits="userSpaceOnUse"><stop stop-color="#FFD945" stop-opacity="0"/><stop offset="1" stop-color="#FBED21"/></linearGradient><linearGradient id="u" x1="16.9" x2="16" y1="12.6" y2="11.3" gradientUnits="userSpaceOnUse"><stop stop-color="#E87264" stop-opacity="0"/><stop offset="1" stop-color="#FF7044"/></linearGradient><linearGradient id="v" x1="16.9" x2="16" y1="18.3" y2="17" gradientUnits="userSpaceOnUse"><stop stop-color="#E87264" stop-opacity="0"/><stop offset="1" stop-color="#FF7044"/></linearGradient><linearGradient id="x" x1="16.2" x2="15" y1="11.2" y2="10.1" gradientUnits="userSpaceOnUse"><stop stop-color="#FFD945" stop-opacity="0"/><stop offset="1" stop-color="#FBED21"/></linearGradient><linearGradient id="y" x1="16.4" x2="18.2" y1="11.1" y2="9.6" gradientUnits="userSpaceOnUse"><stop stop-color="#E87264" stop-opacity="0"/><stop offset="1" stop-color="#FF7044"/></linearGradient><linearGradient id="z" x1="16" x2="16" y1="10.8" y2="9.8" gradientUnits="userSpaceOnUse"><stop stop-color="#fff" stop-opacity="0"/><stop offset="1" stop-color="#fff"/></linearGradient><linearGradient id="B" x1="16.2" x2="15" y1="21.1" y2="20" gradientUnits="userSpaceOnUse"><stop stop-color="#FFD945" stop-opacity="0"/><stop offset="1" stop-color="#FBED21"/></linearGradient><linearGradient id="C" x1="16.4" x2="18.2" y1="21" y2="19.4" gradientUnits="userSpaceOnUse"><stop stop-color="#E87264" stop-opacity="0"/><stop offset="1" stop-color="#FF7044"/></linearGradient><linearGradient id="D" x1="16" x2="16" y1="20.6" y2="19.7" gradientUnits="userSpaceOnUse"><stop stop-color="#fff" stop-opacity="0"/><stop offset="1" stop-color="#fff"/></linearGradient><linearGradient id="E" x1="16" x2="16" y1="15.5" y2="16.3" gradientUnits="userSpaceOnUse"><stop stop-color="#FFD945"/><stop offset=".4" stop-color="#FFD744"/><stop offset=".6" stop-color="#FFCF3F"/><stop offset=".8" stop-color="#FFC237"/><stop offset=".9" stop-color="#FFAF2C"/><stop offset="1" stop-color="#FFA325"/></linearGradient><linearGradient id="F" x1="16" x2="15.9" y1="16.4" y2="15.1" gradientUnits="userSpaceOnUse"><stop stop-color="#FFD945" stop-opacity="0"/><stop offset="1" stop-color="#FBED21"/></linearGradient><linearGradient id="G" x1="12.5" x2="11.7" y1="16.4" y2="16.1" gradientUnits="userSpaceOnUse"><stop stop-color="#E87264" stop-opacity="0"/><stop offset="1" stop-color="#FF7044"/></linearGradient><linearGradient id="H" x1="18.2" x2="17.4" y1="16.4" y2="16.1" gradientUnits="userSpaceOnUse"><stop stop-color="#E87264" stop-opacity="0"/><stop offset="1" stop-color="#FF7044"/></linearGradient><linearGradient id="J" x1="21.1" x2="20" y1="16.2" y2="15" gradientUnits="userSpaceOnUse"><stop stop-color="#FFD945" stop-opacity="0"/><stop offset="1" stop-color="#FBED21"/></linearGradient><linearGradient id="K" x1="21.4" x2="23.2" y1="16" y2="14.5" gradientUnits="userSpaceOnUse"><stop stop-color="#E87264" stop-opacity="0"/><stop offset="1" stop-color="#FF7044"/></linearGradient><linearGradient id="L" x1="20.9" x2="20.9" y1="15.7" y2="14.8" gradientUnits="userSpaceOnUse"><stop stop-color="#fff" stop-opacity="0"/><stop offset="1" stop-color="#fff"/></linearGradient><linearGradient id="N" x1="11.2" x2="10.1" y1="16.2" y2="15" gradientUnits="userSpaceOnUse"><stop stop-color="#FFD945" stop-opacity="0"/><stop offset="1" stop-color="#FBED21"/></linearGradient><linearGradient id="O" x1="11.5" x2="13.3" y1="16" y2="14.5" gradientUnits="userSpaceOnUse"><stop stop-color="#E87264" stop-opacity="0"/><stop offset="1" stop-color="#FF7044"/></linearGradient><linearGradient id="P" x1="11.1" x2="11.1" y1="15.7" y2="14.8" gradientUnits="userSpaceOnUse"><stop stop-color="#fff" stop-opacity="0"/><stop offset="1" stop-color="#fff"/></linearGradient><linearGradient id="R" x1="16.3" x2="14.3" y1="16.3" y2="14.3" gradientUnits="userSpaceOnUse"><stop stop-color="#FFD945" stop-opacity="0"/><stop offset="1" stop-color="#FBED21"/></linearGradient><linearGradient id="S" x1="16.7" x2="19.8" y1="16.1" y2="13.4" gradientUnits="userSpaceOnUse"><stop stop-color="#E87264" stop-opacity="0"/><stop offset="1" stop-color="#FF7044"/></linearGradient><linearGradient id="T" x1="16" x2="16" y1="15.5" y2="13.9" gradientUnits="userSpaceOnUse"><stop stop-color="#fff" stop-opacity="0"/><stop offset="1" stop-color="#fff"/></linearGradient><linearGradient id="U" x1="23.3" x2="20.8" y1="10.6" y2="8.1" gradientUnits="userSpaceOnUse"><stop stop-color="#6E566E" stop-opacity="0"/><stop offset="1" stop-color="#6E566E"/></linearGradient><linearGradient id="V" x1="20.5" x2="22.8" y1="8.9" y2="8.9" gradientUnits="userSpaceOnUse"><stop stop-color="#E4F2FF"/><stop offset="1" stop-color="#B2CBFF"/></linearGradient><linearGradient id="W" x1="21.8" x2="20.5" y1="9.1" y2="7.8" gradientUnits="userSpaceOnUse"><stop stop-color="#fff" stop-opacity="0"/><stop offset="1" stop-color="#fff"/></linearGradient><linearGradient id="X" x1="22.1" x2="24.2" y1="9" y2="7.2" gradientUnits="userSpaceOnUse"><stop stop-color="#3F3CED" stop-opacity="0"/><stop offset=".3" stop-color="#3C3DE4" stop-opacity=".3"/><stop offset=".7" stop-color="#3541CC" stop-opacity=".7"/><stop offset="1" stop-color="#2F43BB"/></linearGradient><linearGradient id="Y" x1="21.6" x2="21.6" y1="8.8" y2="7.7" gradientUnits="userSpaceOnUse"><stop stop-color="#fff" stop-opacity="0"/><stop offset="1" stop-color="#fff"/></linearGradient><linearGradient id="Z" x1="15.7" x2="13.1" y1="26.3" y2="23.8" gradientUnits="userSpaceOnUse"><stop stop-color="#6E566E" stop-opacity="0"/><stop offset="1" stop-color="#6E566E"/></linearGradient><linearGradient id="aa" x1="12.9" x2="15.1" y1="24.6" y2="24.6" gradientUnits="userSpaceOnUse"><stop stop-color="#E4F2FF"/><stop offset="1" stop-color="#B2CBFF"/></linearGradient><linearGradient id="ab" x1="14.2" x2="12.9" y1="24.8" y2="23.5" gradientUnits="userSpaceOnUse"><stop stop-color="#fff" stop-opacity="0"/><stop offset="1" stop-color="#fff"/></linearGradient><linearGradient id="ac" x1="14.5" x2="16.6" y1="24.7" y2="22.9" gradientUnits="userSpaceOnUse"><stop stop-color="#3F3CED" stop-opacity="0"/><stop offset=".3" stop-color="#3C3DE4" stop-opacity=".3"/><stop offset=".7" stop-color="#3541CC" stop-opacity=".7"/><stop offset="1" stop-color="#2F43BB"/></linearGradient><linearGradient id="ad" x1="14" x2="14" y1="24.5" y2="23.4" gradientUnits="userSpaceOnUse"><stop stop-color="#fff" stop-opacity="0"/><stop offset="1" stop-color="#fff"/></linearGradient><linearGradient id="ae" x1="17.2" x2="1.8" y1="18.3" y2="-11.4" gradientUnits="userSpaceOnUse"><stop stop-color="#fff" stop-opacity="0"/><stop offset="1" stop-color="#fff"/></linearGradient><radialGradient id="f" cx="0" cy="0" r="1" gradientTransform="rotate(180 8 8) scale(11.4514)" gradientUnits="userSpaceOnUse"><stop stop-color="#6E566E" stop-opacity="0"/><stop offset=".5" stop-color="#6D546D" stop-opacity=".5"/><stop offset=".8" stop-color="#684C68" stop-opacity=".8"/><stop offset="1" stop-color="#5F3F60"/><stop offset="1" stop-color="#5E3D5F"/></radialGradient><radialGradient id="g" cx="0" cy="0" r="1" gradientTransform="translate(16 16) scale(10.7097)" gradientUnits="userSpaceOnUse"><stop stop-color="#FF7044"/><stop offset=".2" stop-color="#FF6B41"/><stop offset=".5" stop-color="#FD5D38"/><stop offset=".7" stop-color="#FB4728"/><stop offset="1" stop-color="#F82814"/></radialGradient><radialGradient id="i" cx="0" cy="0" r="1" gradientTransform="translate(16 17) scale(7.46013)" gradientUnits="userSpaceOnUse"><stop stop-color="#005A01" stop-opacity="0"/><stop offset=".9" stop-color="#005A01" stop-opacity=".9"/><stop offset="1" stop-color="#005A01"/></radialGradient><radialGradient id="m" cx="0" cy="0" r="1" gradientTransform="translate(15 14) scale(5.63362)" gradientUnits="userSpaceOnUse"><stop stop-color="#FFD945"/><stop offset=".4" stop-color="#FFD744"/><stop offset=".6" stop-color="#FFCF3F"/><stop offset=".8" stop-color="#FFC237"/><stop offset=".9" stop-color="#FFAF2C"/><stop offset="1" stop-color="#FFA325"/></radialGradient><radialGradient id="w" cx="0" cy="0" r="1" gradientTransform="translate(16 11) scale(1.21024)" gradientUnits="userSpaceOnUse"><stop stop-color="#FFD945"/><stop offset=".4" stop-color="#FFD744"/><stop offset=".6" stop-color="#FFCF3F"/><stop offset=".8" stop-color="#FFC237"/><stop offset=".9" stop-color="#FFAF2C"/><stop offset="1" stop-color="#FFA325"/></radialGradient><radialGradient id="A" cx="0" cy="0" r="1" gradientTransform="translate(16 21) scale(1.21024)" gradientUnits="userSpaceOnUse"><stop stop-color="#FFD945"/><stop offset=".4" stop-color="#FFD744"/><stop offset=".6" stop-color="#FFCF3F"/><stop offset=".8" stop-color="#FFC237"/><stop offset=".9" stop-color="#FFAF2C"/><stop offset="1" stop-color="#FFA325"/></radialGradient><radialGradient id="I" cx="0" cy="0" r="1" gradientTransform="translate(21 16) scale(1.21025)" gradientUnits="userSpaceOnUse"><stop stop-color="#FFD945"/><stop offset=".4" stop-color="#FFD744"/><stop offset=".6" stop-color="#FFCF3F"/><stop offset=".8" stop-color="#FFC237"/><stop offset=".9" stop-color="#FFAF2C"/><stop offset="1" stop-color="#FFA325"/></radialGradient><radialGradient id="M" cx="0" cy="0" r="1" gradientTransform="translate(11 16) scale(1.21025)" gradientUnits="userSpaceOnUse"><stop stop-color="#FFD945"/><stop offset=".4" stop-color="#FFD744"/><stop offset=".6" stop-color="#FFCF3F"/><stop offset=".8" stop-color="#FFC237"/><stop offset=".9" stop-color="#FFAF2C"/><stop offset="1" stop-color="#FFA325"/></radialGradient><radialGradient id="Q" cx="0" cy="0" r="1" gradientTransform="translate(16 15) scale(2.08482)" gradientUnits="userSpaceOnUse"><stop stop-color="#FFD945"/><stop offset=".4" stop-color="#FFD744"/><stop offset=".6" stop-color="#FFCF3F"/><stop offset=".8" stop-color="#FFC237"/><stop offset=".9" stop-color="#FFAF2C"/><stop offset="1" stop-color="#FFA325"/></radialGradient></defs></svg>