<svg xmlns="http://www.w3.org/2000/svg" width="32" height="32" fill="none"><path fill="url(#a)" d="M28 8h1v11h-1V8Z"/><path fill="url(#b)" d="m28 10 1 1V8h-1v2Z"/><path fill="url(#c)" d="M28 10a2 2 0 1 0 0-5 2 2 0 0 0 0 5Z"/><path fill="url(#d)" d="M28 9a2 2 0 1 0 0-3 2 2 0 0 0 0 3Z"/><path fill="url(#e)" d="m29 5 1 1a2 2 0 0 1-4 2 2 2 0 1 0 3-3Z"/><path fill="url(#f)" d="M28 21h-1v-4h1l1 1v1l-1 2Z"/><path fill="url(#g)" d="M28 17h-1v4h1l1-2-1-2Z"/><path fill="url(#h)" d="M27 22h-3v-6h3l1 1v3l-1 2Z"/><path fill="url(#i)" d="M25 16h1-2v6h3l1-2v-2l-3-2Z"/><path fill="url(#j)" d="M16 10h-5V8a3 3 0 1 1 5 0v2Z"/><path fill="url(#k)" d="M15 6h-2l-2 2v2h5V8l-1-2Z"/><path fill="url(#l)" d="m13 5 2 3v2h1V8c0-2-1-3-3-3Z"/><path fill="url(#m)" d="m13 8 2-1c0-1 0-2-2-2l-2 2 2 1Z"/><path fill="url(#n)" d="M17 11h-7V8h6l1 1v2Z"/><path fill="url(#o)" d="M17 11V8h-6l-1 1v2h7Z"/><path fill="url(#p)" d="M23 28H4l-2-1V11l2-1h19l1 1v16l-1 1Z"/><path fill="url(#q)" d="M18 12H9a1 1 0 1 1 0-1h9a1 1 0 0 1 0 1Z"/><path fill="url(#r)" d="m5 10-2 2v16h20l1-1V10H5Z"/><path fill="url(#s)" d="m2 24 4 4h17l1-1v-3H2Z"/><path fill="url(#t)" d="M1 14v9l1 1h23V13H2l-1 1Z"/><path fill="url(#u)" d="m3 14-1 1v9h23V14H3Z"/><path fill="url(#v)" d="M9 15v8H8a92 92 0 0 1-5-1v-7a91 91 0 0 1 6 0Z"/><path fill="url(#w)" d="M16 15v8h-3a89 89 0 0 1-2 0v-9a88 88 0 0 1 5 1Z"/><path fill="url(#x)" d="M24 15v7l-1 1a92 92 0 0 1-5 0v-9a91 91 0 0 1 6 1Z"/><path fill="url(#y)" d="M9 15v2H3v-2a92 92 0 0 1 6 0Z"/><path fill="url(#z)" d="M16 15v2h-5v-3a88 88 0 0 1 5 1Z"/><path fill="url(#A)" d="M24 15v2h-6v-3a92 92 0 0 1 6 1Z"/><path fill="url(#B)" d="M9 23v-6l-1-1H4v2l2 1-1 2v1l1 1a92 92 0 0 0 3 0Z"/><path fill="url(#C)" d="M4 17v-1h4v2l-2 4H5v-1l2-4H5v1H4v-1Z"/><path fill="url(#D)" d="M5 22v-1l2-4H5l-1 1v-2h4v2l-2 4H5Z"/><path fill="url(#E)" d="M16 17v6h-2l-2-1v-1l1-2-2-1v-2h4l1 1Z"/><path fill="url(#F)" d="M16 17v6h-2l-2-1h1l2-4 1-1v-1h-1l1 1Z"/><path fill="url(#G)" d="M11 17v-1h5v1l-1 1-2 4h-1v-1l2-4h-1l-1 1h-1v-1Z"/><path fill="url(#H)" d="M13 22h-1v-1l2-4h-2v1-1h-1v-1h4v2l-2 4Z"/><path fill="url(#I)" d="M24 17v5l-1 1h-2l-1-1-1-1 2-2-2-1v-2h3a1 1 0 0 1 1 0l1 1Z"/><path fill="url(#J)" d="M24 17v5l-1 1h-2l-1-1h1l2-4v-2l1 1Z"/><path fill="url(#K)" d="M19 17v-1h4v2l-2 4h-1l-1-1 3-4h-2v1h-1v-1Z"/><path fill="url(#L)" d="M20 22v-1l2-4h-2l-1 1v-2h4v2l-2 4h-1Z"/><path fill="url(#M)" d="M9 17v6H6l-1-1h1l2-4v-2l1 1Z"/><path fill="url(#N)" d="M14 4V3h-1v1h1Z"/><path fill="url(#O)" d="M17 7h1-1Z"/><path fill="url(#P)" d="M9 7h1-1Z"/><path fill="url(#Q)" d="M16 5h1l-1-1v1Z"/><path fill="url(#R)" d="M10 5h1V4l-1 1Z"/><defs><linearGradient id="a" x1="27.9" x2="29.1" y1="13.4" y2="13.4" gradientUnits="userSpaceOnUse"><stop stop-color="#E4F2FF"/><stop offset="1" stop-color="#B2CBFF"/></linearGradient><linearGradient id="b" x1="30.2" x2="27.3" y1="10.6" y2="7.7" gradientUnits="userSpaceOnUse"><stop stop-color="#3F3CED" stop-opacity="0"/><stop offset=".3" stop-color="#3C3DE4" stop-opacity=".3"/><stop offset=".7" stop-color="#3541CC" stop-opacity=".7"/><stop offset="1" stop-color="#2F43BB"/></linearGradient><linearGradient id="c" x1="27.6" x2="30.5" y1="6.6" y2="9.5" gradientUnits="userSpaceOnUse"><stop stop-color="#91F27F"/><stop offset="1" stop-color="#00B302"/></linearGradient><linearGradient id="d" x1="28.7" x2="26.7" y1="7.6" y2="5.6" gradientUnits="userSpaceOnUse"><stop stop-color="#91F27F" stop-opacity="0"/><stop offset="1" stop-color="#FFED82"/></linearGradient><linearGradient id="e" x1="28.4" x2="34.3" y1="8.3" y2="3.5" gradientUnits="userSpaceOnUse"><stop stop-color="#005A01" stop-opacity="0"/><stop offset="1" stop-color="#005A01"/></linearGradient><linearGradient id="f" x1="28.3" x2="28.3" y1="18.1" y2="20.9" gradientUnits="userSpaceOnUse"><stop stop-color="#9B62CD"/><stop offset=".3" stop-color="#985DCB"/><stop offset=".7" stop-color="#8F4EC7"/><stop offset="1" stop-color="#833AC1"/></linearGradient><linearGradient id="g" x1="28.8" x2="26.2" y1="19.5" y2="18.2" gradientUnits="userSpaceOnUse"><stop stop-color="#833AC1" stop-opacity="0"/><stop offset="1" stop-color="#6E566E"/></linearGradient><linearGradient id="h" x1="26" x2="26" y1="17.7" y2="22" gradientUnits="userSpaceOnUse"><stop stop-color="#FF7044"/><stop offset="1" stop-color="#F82814"/></linearGradient><linearGradient id="i" x1="27" x2="23" y1="19.9" y2="17.7" gradientUnits="userSpaceOnUse"><stop stop-color="#F82814" stop-opacity="0"/><stop offset="1" stop-color="#C0272D"/></linearGradient><linearGradient id="j" x1="13.4" x2="13.4" y1="6" y2="11.2" gradientUnits="userSpaceOnUse"><stop stop-color="#FF7044"/><stop offset="1" stop-color="#F82814"/></linearGradient><linearGradient id="k" x1="13.5" x2="11.6" y1="8.1" y2="5.4" gradientUnits="userSpaceOnUse"><stop stop-color="#FF7044" stop-opacity="0"/><stop offset="1" stop-color="#FFA325"/></linearGradient><linearGradient id="l" x1="14.6" x2="14.6" y1="5.3" y2="10.5" gradientUnits="userSpaceOnUse"><stop stop-color="#F82814" stop-opacity="0"/><stop offset="1" stop-color="#C0272D"/></linearGradient><linearGradient id="m" x1="13.4" x2="13.4" y1="7" y2="2.3" gradientUnits="userSpaceOnUse"><stop stop-color="#fff" stop-opacity="0"/><stop offset="1" stop-color="#fff"/></linearGradient><linearGradient id="n" x1="13.4" x2="13.4" y1="8.6" y2="11.2" gradientUnits="userSpaceOnUse"><stop stop-color="#8A7889"/><stop offset="1" stop-color="#6E566E"/></linearGradient><linearGradient id="o" x1="14.2" x2="11.6" y1="10.6" y2="6.8" gradientUnits="userSpaceOnUse"><stop stop-color="#8A7889" stop-opacity="0"/><stop offset="1" stop-color="#9D8B91"/></linearGradient><linearGradient id="p" x1="7.6" x2="19.2" y1="12.9" y2="24.6" gradientUnits="userSpaceOnUse"><stop stop-color="#9B62CD"/><stop offset=".3" stop-color="#985DCB"/><stop offset=".7" stop-color="#8F4EC7"/><stop offset="1" stop-color="#833AC1"/></linearGradient><linearGradient id="q" x1="13.4" x2="13.4" y1="11.8" y2="10.2" gradientUnits="userSpaceOnUse"><stop stop-color="#9B62CD"/><stop offset=".1" stop-color="#965ACB"/><stop offset=".7" stop-color="#8843C4"/><stop offset="1" stop-color="#833AC1"/></linearGradient><linearGradient id="r" x1="18.8" x2="-3.6" y1="22.6" y2="7.2" gradientUnits="userSpaceOnUse"><stop stop-color="#9B62CD" stop-opacity="0"/><stop offset="1" stop-color="#FF75C8"/></linearGradient><linearGradient id="s" x1="13.5" x2="13.4" y1="29" y2="22.7" gradientUnits="userSpaceOnUse"><stop stop-color="#833AC1" stop-opacity="0"/><stop offset="1" stop-color="#6E566E"/></linearGradient><linearGradient id="t" x1="13" x2="14.5" y1="16.1" y2="26.2" gradientUnits="userSpaceOnUse"><stop stop-color="#FFD945"/><stop offset=".3" stop-color="#FFCD3E"/><stop offset=".9" stop-color="#FFAD2B"/><stop offset="1" stop-color="#FFA325"/></linearGradient><linearGradient id="u" x1="15.3" x2="7.7" y1="21.7" y2="8.8" gradientUnits="userSpaceOnUse"><stop stop-color="#FFD945" stop-opacity="0"/><stop offset="1" stop-color="#FBED21"/></linearGradient><linearGradient id="v" x1="6" x2="6" y1="17" y2="22.1" gradientUnits="userSpaceOnUse"><stop stop-color="#fff"/><stop offset="1" stop-color="#E4F2FF"/></linearGradient><linearGradient id="w" x1="13.4" x2="13.4" y1="17" y2="22.1" gradientUnits="userSpaceOnUse"><stop stop-color="#fff"/><stop offset="1" stop-color="#E4F2FF"/></linearGradient><linearGradient id="x" x1="20.9" x2="20.9" y1="17" y2="22.1" gradientUnits="userSpaceOnUse"><stop stop-color="#fff"/><stop offset="1" stop-color="#E4F2FF"/></linearGradient><linearGradient id="y" x1="6" x2="6" y1="15" y2="13.4" gradientUnits="userSpaceOnUse"><stop stop-color="#3F3CED" stop-opacity="0"/><stop offset=".3" stop-color="#3C3DE4" stop-opacity=".3"/><stop offset=".7" stop-color="#3541CC" stop-opacity=".7"/><stop offset="1" stop-color="#2F43BB"/></linearGradient><linearGradient id="z" x1="13.4" x2="13.4" y1="15" y2="13.4" gradientUnits="userSpaceOnUse"><stop stop-color="#3F3CED" stop-opacity="0"/><stop offset=".3" stop-color="#3C3DE4" stop-opacity=".3"/><stop offset=".7" stop-color="#3541CC" stop-opacity=".7"/><stop offset="1" stop-color="#2F43BB"/></linearGradient><linearGradient id="A" x1="20.9" x2="20.9" y1="15" y2="13.4" gradientUnits="userSpaceOnUse"><stop stop-color="#3F3CED" stop-opacity="0"/><stop offset=".3" stop-color="#3C3DE4" stop-opacity=".3"/><stop offset=".7" stop-color="#3541CC" stop-opacity=".7"/><stop offset="1" stop-color="#2F43BB"/></linearGradient><linearGradient id="B" x1="6.2" x2="3.3" y1="18.6" y2="15.6" gradientUnits="userSpaceOnUse"><stop stop-color="#3F3CED" stop-opacity="0"/><stop offset=".3" stop-color="#3C3DE4" stop-opacity=".3"/><stop offset=".7" stop-color="#3541CC" stop-opacity=".7"/><stop offset="1" stop-color="#2F43BB"/></linearGradient><linearGradient id="C" x1="3.8" x2="8.1" y1="18.8" y2="18.8" gradientUnits="userSpaceOnUse"><stop stop-color="#FFD945"/><stop offset=".3" stop-color="#FFCD3E"/><stop offset=".9" stop-color="#FFAD2B"/><stop offset="1" stop-color="#FFA325"/></linearGradient><linearGradient id="D" x1="4" x2="7.9" y1="18.8" y2="18.8" gradientUnits="userSpaceOnUse"><stop stop-color="#FF7044"/><stop offset="1" stop-color="#F82814"/></linearGradient><linearGradient id="E" x1="13.7" x2="10.7" y1="18.6" y2="15.6" gradientUnits="userSpaceOnUse"><stop stop-color="#3F3CED" stop-opacity="0"/><stop offset=".3" stop-color="#3C3DE4" stop-opacity=".3"/><stop offset=".7" stop-color="#3541CC" stop-opacity=".7"/><stop offset="1" stop-color="#2F43BB"/></linearGradient><linearGradient id="F" x1="15.3" x2="11.8" y1="19.9" y2="17.8" gradientUnits="userSpaceOnUse"><stop stop-color="#3F3CED" stop-opacity="0"/><stop offset=".3" stop-color="#3C3DE4" stop-opacity=".3"/><stop offset=".7" stop-color="#3541CC" stop-opacity=".7"/><stop offset="1" stop-color="#2F43BB"/></linearGradient><linearGradient id="G" x1="11.3" x2="15.6" y1="18.8" y2="18.8" gradientUnits="userSpaceOnUse"><stop stop-color="#FFD945"/><stop offset=".3" stop-color="#FFCD3E"/><stop offset=".9" stop-color="#FFAD2B"/><stop offset="1" stop-color="#FFA325"/></linearGradient><linearGradient id="H" x1="11.5" x2="15.4" y1="18.8" y2="18.8" gradientUnits="userSpaceOnUse"><stop stop-color="#FF7044"/><stop offset="1" stop-color="#F82814"/></linearGradient><linearGradient id="I" x1="21" x2="18.1" y1="18.4" y2="14.9" gradientUnits="userSpaceOnUse"><stop stop-color="#3F3CED" stop-opacity="0"/><stop offset=".3" stop-color="#3C3DE4" stop-opacity=".3"/><stop offset=".7" stop-color="#3541CC" stop-opacity=".7"/><stop offset="1" stop-color="#2F43BB"/></linearGradient><linearGradient id="J" x1="22.6" x2="19.4" y1="19.8" y2="17.8" gradientUnits="userSpaceOnUse"><stop stop-color="#3F3CED" stop-opacity="0"/><stop offset=".3" stop-color="#3C3DE4" stop-opacity=".3"/><stop offset=".7" stop-color="#3541CC" stop-opacity=".7"/><stop offset="1" stop-color="#2F43BB"/></linearGradient><linearGradient id="K" x1="18.7" x2="23" y1="18.8" y2="18.8" gradientUnits="userSpaceOnUse"><stop stop-color="#FFD945"/><stop offset=".3" stop-color="#FFCD3E"/><stop offset=".9" stop-color="#FFAD2B"/><stop offset="1" stop-color="#FFA325"/></linearGradient><linearGradient id="L" x1="18.9" x2="22.8" y1="18.8" y2="18.8" gradientUnits="userSpaceOnUse"><stop stop-color="#FF7044"/><stop offset="1" stop-color="#F82814"/></linearGradient><linearGradient id="M" x1="7.8" x2="4.4" y1="19.9" y2="17.8" gradientUnits="userSpaceOnUse"><stop stop-color="#3F3CED" stop-opacity="0"/><stop offset=".3" stop-color="#3C3DE4" stop-opacity=".3"/><stop offset=".7" stop-color="#3541CC" stop-opacity=".7"/><stop offset="1" stop-color="#2F43BB"/></linearGradient><linearGradient id="N" x1="13.3" x2="14.2" y1="3.6" y2="3.6" gradientUnits="userSpaceOnUse"><stop stop-color="#FFD945"/><stop offset=".3" stop-color="#FFCD3E"/><stop offset=".9" stop-color="#FFAD2B"/><stop offset="1" stop-color="#FFA325"/></linearGradient><linearGradient id="O" x1="17.5" x2="17.5" y1="6.9" y2="7.9" gradientUnits="userSpaceOnUse"><stop stop-color="#FFD945"/><stop offset=".3" stop-color="#FFCD3E"/><stop offset=".9" stop-color="#FFAD2B"/><stop offset="1" stop-color="#FFA325"/></linearGradient><linearGradient id="P" x1="9.3" x2="9.3" y1="6.9" y2="7.9" gradientUnits="userSpaceOnUse"><stop stop-color="#FFD945"/><stop offset=".3" stop-color="#FFCD3E"/><stop offset=".9" stop-color="#FFAD2B"/><stop offset="1" stop-color="#FFA325"/></linearGradient><linearGradient id="Q" x1="16.1" x2="16.8" y1="4.5" y2="5.2" gradientUnits="userSpaceOnUse"><stop stop-color="#FFD945"/><stop offset=".3" stop-color="#FFCD3E"/><stop offset=".9" stop-color="#FFAD2B"/><stop offset="1" stop-color="#FFA325"/></linearGradient><linearGradient id="R" x1="10.7" x2="10" y1="4.5" y2="5.2" gradientUnits="userSpaceOnUse"><stop stop-color="#FFD945"/><stop offset=".3" stop-color="#FFCD3E"/><stop offset=".9" stop-color="#FFAD2B"/><stop offset="1" stop-color="#FFA325"/></linearGradient></defs></svg>