<svg width="24" height="24" viewBox="0 0 24 24" fill="none" xmlns="http://www.w3.org/2000/svg">
<path d="M12 1C5.93458 1 1 5.93458 1 12C1 18.0654 5.93458 23 12 23C18.0654 23 23 18.0654 23 12C23 5.93458 18.0654 1 12 1Z" fill="url(#paint0_linear_408:8051)"/>
<path d="M15.7185 1.64648C18.7144 3.61393 20.6965 7.00375 20.6965 10.848C20.6965 16.9134 15.7619 21.848 9.69647 21.848C8.39219 21.848 7.1401 21.6199 5.97821 21.2012C7.70923 22.3379 9.7788 22.9997 12 22.9997C18.0654 22.9997 23 18.0652 23 11.9997C23 7.2386 19.9595 3.17437 15.7185 1.64648Z" fill="url(#paint1_linear_408:8051)"/>
<path d="M14.5345 9.4657L17.7925 6.20747C16.7908 5.20576 15.5306 4.46273 14.1206 4.08594L12.9277 8.53777C13.5445 8.70266 14.0961 9.02749 14.5345 9.4657Z" fill="#6990D7"/>
<path d="M19.914 9.87891L15.4622 11.0718C15.5414 11.3679 15.5841 11.6788 15.5841 11.9995C15.5841 12.3206 15.5414 12.6312 15.4622 12.9273L19.914 14.1202C20.0949 13.4438 20.1919 12.7329 20.1919 11.9995C20.1919 11.2662 20.0949 10.5553 19.914 9.87891Z" fill="#97D57E"/>
<path d="M19.9141 9.87895C19.5373 8.46916 18.7942 7.20897 17.7925 6.20703L14.5343 9.46526C14.9727 9.90347 15.2973 10.4551 15.4622 11.0719L19.9141 9.87895Z" fill="#FFE565"/>
<path d="M12 8.41534C12.321 8.41534 12.6319 8.45831 12.9277 8.53726L14.1206 4.08543C13.4442 3.90457 12.7336 3.80762 12 3.80762C11.2666 3.80762 10.5558 3.90457 9.87958 4.08543L11.0723 8.53726C11.3683 8.45831 11.6792 8.41534 12 8.41534Z" fill="#97D57E"/>
<path d="M11.0723 8.53777L9.8796 4.08594C8.46959 4.46273 7.2094 5.20576 6.20746 6.20747L9.46568 9.4657C9.90389 9.02749 10.4555 8.70266 11.0723 8.53777Z" fill="#EB5793"/>
<path d="M9.46564 9.46526L6.20741 6.20703C5.20569 7.20897 4.46267 8.46916 4.08588 9.87895L8.53771 11.0719C8.7026 10.4551 9.0272 9.90347 9.46564 9.46526Z" fill="#6990D7"/>
<path d="M8.41582 11.9995C8.41582 11.6785 8.45856 11.3679 8.53775 11.0718L4.08592 9.87891C3.90506 10.5553 3.80811 11.2662 3.80811 11.9995C3.80811 12.7329 3.90506 13.4438 4.08592 14.1202L8.53775 12.9273C8.45856 12.6312 8.41582 12.3206 8.41582 11.9995Z" fill="#97D57E"/>
<path d="M4.08588 14.1207C4.46267 15.5304 5.20569 16.7908 6.20741 17.7926L9.46564 14.5343C9.02743 14.0961 8.7026 13.5446 8.53771 12.9277L4.08588 14.1207Z" fill="#FFE565"/>
<path d="M9.46568 14.5342L6.20746 17.7924C7.2094 18.7941 8.46959 19.5372 9.87937 19.914L11.0723 15.4621C10.4555 15.2972 9.90389 14.9726 9.46568 14.5342Z" fill="#6990D7"/>
<path d="M14.5345 14.5342C14.0961 14.9726 13.5445 15.2972 12.9277 15.4621L14.1206 19.914C15.5306 19.5372 16.7908 18.7941 17.7925 17.7924L14.5345 14.5342Z" fill="#FFE565"/>
<path d="M12 15.5838C11.6792 15.5838 11.3683 15.5411 11.0723 15.4619L9.87958 19.9137C10.5558 20.0946 11.2666 20.1916 12 20.1916C12.7336 20.1916 13.4442 20.0946 14.1206 19.9137L12.9277 15.4619C12.6319 15.5411 12.321 15.5838 12 15.5838Z" fill="#97D57E"/>
<path d="M15.4623 12.9277C15.2974 13.5446 14.9728 14.0961 14.5345 14.5343L17.7925 17.7926C18.7945 16.7908 19.5373 15.5304 19.9143 14.1207L15.4623 12.9277Z" fill="#6990D7"/>
<path d="M17.9975 11.5829L15.4476 11.0205C15.5358 11.3318 15.5842 11.66 15.5842 11.9997C15.5842 12.3394 15.536 12.6676 15.4476 12.9792L17.9975 12.4166C18.1932 12.3736 18.3324 12.2002 18.3324 11.9997C18.3324 11.7993 18.1932 11.6261 17.9975 11.5829Z" fill="#EB5793"/>
<path d="M15.5842 12.0002C15.5842 13.9798 13.9796 15.5844 12 15.5844C10.0206 15.5844 8.41577 13.9798 8.41577 12.0002C8.41577 10.0208 10.0206 8.41602 12 8.41602C13.9796 8.41602 15.5842 10.0208 15.5842 12.0002Z" fill="#E5E2E6"/>
<path d="M12.3439 8.43262C12.9257 9.06969 13.2806 9.91776 13.2806 10.8486C13.2806 12.8282 11.676 14.4328 9.69645 14.4328C9.5806 14.4328 9.46587 14.4272 9.35272 14.4166C10.008 15.1342 10.9515 15.5846 12 15.5846C13.9796 15.5846 15.5842 13.98 15.5842 12.0004C15.5842 10.1369 14.162 8.60561 12.3439 8.43262Z" fill="#D6D1D7"/>
<path d="M13.6833 13.1586H10.3169C10.0874 13.1586 9.90161 12.9726 9.90161 12.7433V11.2568C9.90161 11.0276 10.0874 10.8418 10.3169 10.8418H13.6833C13.9125 10.8418 14.0983 11.0276 14.0983 11.2568V12.7433C14.0983 12.9726 13.9125 13.1586 13.6833 13.1586Z" fill="#6990D7"/>
<path d="M13.2806 10.8483C13.2806 11.7286 12.9634 12.5346 12.4368 13.1584H13.6833C13.9125 13.1584 14.0983 12.9725 14.0983 12.7433V11.2568C14.0983 11.0276 13.9125 10.8418 13.6833 10.8418H13.2806V10.8483Z" fill="#4172CC"/>
<path d="M12 4.99444C11.7616 4.99444 11.5681 5.1879 11.5681 5.42635C11.5681 5.66502 11.7616 5.85826 12 5.85826C12.2387 5.85826 12.4319 5.66502 12.4319 5.42635C12.4319 5.1879 12.2387 4.99444 12 4.99444ZM12 2.16992C11.7616 2.16992 11.5681 2.36316 11.5681 2.60183C11.5681 2.84028 11.7616 3.03374 12 3.03374C12.2387 3.03374 12.4319 2.84028 12.4319 2.60183C12.4319 2.36316 12.2387 2.16992 12 2.16992ZM9.56758 2.49003C9.32891 2.49003 9.13567 2.68349 9.13567 2.92194C9.13567 3.16062 9.32891 3.35385 9.56758 3.35385C9.80603 3.35385 9.99949 3.16062 9.99949 2.92194C9.99949 2.68349 9.80603 2.49003 9.56758 2.49003ZM7.30073 3.42899C7.06205 3.42899 6.86881 3.62245 6.86881 3.8609C6.86881 4.09935 7.06205 4.29281 7.30073 4.29281C7.53918 4.29281 7.73264 4.09935 7.73264 3.8609C7.73264 3.62245 7.53918 3.42899 7.30073 3.42899ZM5.3542 4.92268C5.11553 4.92268 4.92229 5.11591 4.92229 5.35459C4.92229 5.59304 5.11553 5.7865 5.3542 5.7865C5.59265 5.7865 5.78611 5.59304 5.78611 5.35459C5.78611 5.11591 5.59265 4.92268 5.3542 4.92268ZM3.86051 6.8692C3.62206 6.8692 3.4286 7.06244 3.4286 7.30111C3.4286 7.53956 3.62206 7.73302 3.86051 7.73302C4.09919 7.73302 4.29242 7.53956 4.29242 7.30111C4.29242 7.06244 4.09919 6.8692 3.86051 6.8692ZM2.92156 9.13606C2.68311 9.13606 2.48965 9.32929 2.48965 9.56797C2.48965 9.80642 2.68311 9.99988 2.92156 9.99988C3.16001 9.99988 3.35347 9.80642 3.35347 9.56797C3.35347 9.32929 3.16001 9.13606 2.92156 9.13606ZM2.60122 11.5685C2.36277 11.5685 2.16931 11.7619 2.16931 12.0004C2.16931 12.2388 2.36277 12.4323 2.60122 12.4323C2.8399 12.4323 3.03313 12.2388 3.03313 12.0004C3.03313 11.7619 2.8399 11.5685 2.60122 11.5685ZM20.9669 12.0004C20.9669 12.2388 21.1603 12.4323 21.3988 12.4323C21.6372 12.4323 21.8307 12.2388 21.8307 12.0004C21.8307 11.7619 21.6372 11.5685 21.3988 11.5685C21.1603 11.5685 20.9669 11.7619 20.9669 12.0004ZM2.92156 14.0011C2.68311 14.0011 2.48965 14.1944 2.48965 14.433C2.48965 14.6715 2.68311 14.8649 2.92156 14.8649C3.16001 14.8649 3.35347 14.6715 3.35347 14.433C3.35347 14.1944 3.16001 14.0011 2.92156 14.0011ZM3.86051 16.2678C3.62206 16.2678 3.4286 16.4612 3.4286 16.6997C3.4286 16.9383 3.62206 17.1316 3.86051 17.1316C4.09919 17.1316 4.29242 16.9383 4.29242 16.6997C4.29242 16.4612 4.09919 16.2678 3.86051 16.2678ZM5.3542 18.2143C5.11553 18.2143 4.92229 18.4077 4.92229 18.6462C4.92229 18.8849 5.11553 19.0781 5.3542 19.0781C5.59265 19.0781 5.78611 18.8849 5.78611 18.6462C5.78611 18.4077 5.59265 18.2143 5.3542 18.2143ZM7.30073 19.708C7.06205 19.708 6.86881 19.9014 6.86881 20.1399C6.86881 20.3786 7.06205 20.5718 7.30073 20.5718C7.53918 20.5718 7.73264 20.3786 7.73264 20.1399C7.73264 19.9014 7.53918 19.708 7.30073 19.708ZM9.56758 20.6469C9.32891 20.6469 9.13567 20.8404 9.13567 21.0788C9.13567 21.3175 9.32891 21.5107 9.56758 21.5107C9.80603 21.5107 9.99949 21.3175 9.99949 21.0788C9.99949 20.8404 9.80603 20.6469 9.56758 20.6469ZM12 20.9673C11.7616 20.9673 11.5681 21.1605 11.5681 21.3992C11.5681 21.6376 11.7616 21.8311 12 21.8311C12.2387 21.8311 12.4319 21.6376 12.4319 21.3992C12.4319 21.1605 12.2387 20.9673 12 20.9673ZM14.4327 20.6469C14.1942 20.6469 14.0007 20.8404 14.0007 21.0788C14.0007 21.3175 14.1942 21.5107 14.4327 21.5107C14.6711 21.5107 14.8646 21.3175 14.8646 21.0788C14.8646 20.8404 14.6711 20.6469 14.4327 20.6469ZM16.6995 19.708C16.4608 19.708 16.2676 19.9014 16.2676 20.1399C16.2676 20.3786 16.4608 20.5718 16.6995 20.5718C16.938 20.5718 17.1314 20.3786 17.1314 20.1399C17.1314 19.9014 16.938 19.708 16.6995 19.708ZM18.646 18.2143C18.4074 18.2143 18.2141 18.4077 18.2141 18.6462C18.2141 18.8849 18.4074 19.0781 18.646 19.0781C18.8845 19.0781 19.0779 18.8849 19.0779 18.6462C19.0779 18.4077 18.8845 18.2143 18.646 18.2143ZM20.1395 16.2678C19.901 16.2678 19.7076 16.4612 19.7076 16.6997C19.7076 16.9383 19.901 17.1316 20.1395 17.1316C20.3782 17.1316 20.5714 16.9383 20.5714 16.6997C20.5714 16.4612 20.3782 16.2678 20.1395 16.2678ZM21.0785 14.0011C20.84 14.0011 20.6465 14.1944 20.6465 14.433C20.6465 14.6715 20.84 14.8649 21.0785 14.8649C21.3171 14.8649 21.5104 14.6715 21.5104 14.433C21.5104 14.1944 21.3171 14.0011 21.0785 14.0011ZM21.0785 9.13606C20.84 9.13606 20.6465 9.32929 20.6465 9.56797C20.6465 9.80642 20.84 9.99988 21.0785 9.99988C21.3171 9.99988 21.5104 9.80642 21.5104 9.56797C21.5104 9.32929 21.3171 9.13606 21.0785 9.13606ZM20.1395 6.8692C19.901 6.8692 19.7076 7.06244 19.7076 7.30111C19.7076 7.53956 19.901 7.73302 20.1395 7.73302C20.3782 7.73302 20.5714 7.53956 20.5714 7.30111C20.5714 7.06244 20.3782 6.8692 20.1395 6.8692ZM18.646 4.92268C18.4074 4.92268 18.2141 5.11591 18.2141 5.35459C18.2141 5.59304 18.4074 5.7865 18.646 5.7865C18.8845 5.7865 19.0779 5.59304 19.0779 5.35459C19.0779 5.11591 18.8845 4.92268 18.646 4.92268ZM16.6995 3.42899C16.4608 3.42899 16.2676 3.62245 16.2676 3.8609C16.2676 4.09935 16.4608 4.29281 16.6995 4.29281C16.938 4.29281 17.1314 4.09935 17.1314 3.8609C17.1314 3.62245 16.938 3.42899 16.6995 3.42899ZM14.4327 2.49003C14.1942 2.49003 14.0007 2.68349 14.0007 2.92194C14.0007 3.16062 14.1942 3.35385 14.4327 3.35385C14.6711 3.35385 14.8646 3.16062 14.8646 2.92194C14.8646 2.68349 14.6711 2.49003 14.4327 2.49003ZM8.71298 5.87536C8.47453 5.87536 8.28107 6.06859 8.28107 6.30727C8.28107 6.54572 8.47453 6.73918 8.71298 6.73918C8.95166 6.73918 9.14489 6.54572 9.14489 6.30727C9.14489 6.06859 8.95166 5.87536 8.71298 5.87536ZM6.30688 8.28146C6.06821 8.28146 5.87497 8.47492 5.87497 8.71337C5.87497 8.95204 6.06821 9.14528 6.30688 9.14528C6.54533 9.14528 6.73879 8.95204 6.73879 8.71337C6.73879 8.47492 6.54533 8.28146 6.30688 8.28146ZM5.42619 11.5685C5.18751 11.5685 4.99428 11.7619 4.99428 12.0004C4.99428 12.2388 5.18751 12.4323 5.42619 12.4323C5.66464 12.4323 5.8581 12.2388 5.8581 12.0004C5.8581 11.7619 5.66464 11.5685 5.42619 11.5685ZM6.30688 14.8555C6.06821 14.8555 5.87497 15.049 5.87497 15.2874C5.87497 15.5259 6.06821 15.7193 6.30688 15.7193C6.54533 15.7193 6.73879 15.5259 6.73879 15.2874C6.73879 15.049 6.54533 14.8555 6.30688 14.8555ZM8.71298 17.2618C8.47453 17.2618 8.28107 17.4551 8.28107 17.6937C8.28107 17.9322 8.47453 18.1256 8.71298 18.1256C8.95166 18.1256 9.14489 17.9322 9.14489 17.6937C9.14489 17.4551 8.95166 17.2618 8.71298 17.2618ZM12 18.1425C11.7616 18.1425 11.5681 18.3358 11.5681 18.5744C11.5681 18.8129 11.7616 19.0063 12 19.0063C12.2387 19.0063 12.4319 18.8129 12.4319 18.5744C12.4319 18.3358 12.2387 18.1425 12 18.1425ZM15.287 17.2618C15.0486 17.2618 14.8551 17.4551 14.8551 17.6937C14.8551 17.9322 15.0486 18.1256 15.287 18.1256C15.5257 18.1256 15.7189 17.9322 15.7189 17.6937C15.7189 17.4551 15.5257 17.2618 15.287 17.2618ZM17.6934 14.8555C17.4547 14.8555 17.2614 15.049 17.2614 15.2874C17.2614 15.5259 17.4547 15.7193 17.6934 15.7193C17.9318 15.7193 18.1253 15.5259 18.1253 15.2874C18.1253 15.049 17.9318 14.8555 17.6934 14.8555ZM17.6934 8.28146C17.4547 8.28146 17.2614 8.47492 17.2614 8.71337C17.2614 8.95204 17.4547 9.14528 17.6934 9.14528C17.9318 9.14528 18.1253 8.95204 18.1253 8.71337C18.1253 8.47492 17.9318 8.28146 17.6934 8.28146ZM15.287 5.87536C15.0486 5.87536 14.8551 6.06859 14.8551 6.30727C14.8551 6.54572 15.0486 6.73918 15.287 6.73918C15.5257 6.73918 15.7189 6.54572 15.7189 6.30727C15.7189 6.06859 15.5257 5.87536 15.287 5.87536Z" fill="#FFF6C8"/>
<path d="M20.6465 14.433C20.6465 14.1943 20.84 14.0011 21.0784 14.0011C21.3171 14.0011 21.5103 14.1943 21.5103 14.433C21.5103 14.6714 21.3171 14.8649 21.0784 14.8649C20.84 14.8649 20.6465 14.6714 20.6465 14.433ZM16.2676 20.1398C16.2676 20.3785 16.4608 20.5717 16.6995 20.5717C16.9379 20.5717 17.1314 20.3785 17.1314 20.1398C17.1314 19.9014 16.9379 19.7079 16.6995 19.7079C16.4608 19.7079 16.2676 19.9014 16.2676 20.1398ZM21.0784 9.99982C21.3171 9.99982 21.5103 9.80636 21.5103 9.56791C21.5103 9.32923 21.3171 9.136 21.0784 9.136C20.84 9.136 20.6465 9.32923 20.6465 9.56791C20.6465 9.80636 20.84 9.99982 21.0784 9.99982ZM18.2141 18.6461C18.2141 18.8848 18.4073 19.078 18.646 19.078C18.8844 19.078 19.0779 18.8848 19.0779 18.6461C19.0779 18.4077 18.8844 18.2142 18.646 18.2142C18.4073 18.2142 18.2141 18.4077 18.2141 18.6461ZM12.4182 21.508C12.1705 21.5712 11.9194 21.6261 11.6655 21.6722C11.7446 21.7692 11.865 21.831 12 21.831C12.2009 21.831 12.3698 21.6938 12.4182 21.508ZM14.4326 21.5107C14.6711 21.5107 14.8645 21.3175 14.8645 21.0788C14.8645 20.9051 14.762 20.7555 14.6144 20.6869C14.418 20.7854 14.2185 20.8781 14.0158 20.9649C14.0059 21.0012 14.0007 21.0394 14.0007 21.0788C14.0007 21.3175 14.1942 21.5107 14.4326 21.5107ZM20.1395 17.1315C20.3781 17.1315 20.5714 16.9383 20.5714 16.6996C20.5714 16.4612 20.3781 16.2677 20.1395 16.2677C19.901 16.2677 19.7076 16.4612 19.7076 16.6996C19.7076 16.9383 19.901 17.1315 20.1395 17.1315ZM21.8307 12.0003C21.8307 11.7619 21.6372 11.5684 21.3988 11.5684C21.1603 11.5684 20.9668 11.7619 20.9668 12.0003C20.9668 12.2388 21.1603 12.4322 21.3988 12.4322C21.6372 12.4322 21.8307 12.2388 21.8307 12.0003ZM20.2434 7.72036C20.4317 7.6738 20.5714 7.50373 20.5714 7.30105C20.5714 7.06238 20.3781 6.86914 20.1395 6.86914C20.0778 6.86914 20.0191 6.88219 19.9658 6.90536C20.0688 7.17215 20.1615 7.44412 20.2434 7.72036Z" fill="#FFEA84"/>
<path d="M11.4115 12.4322H11.0536C10.8152 12.4322 10.6217 12.2387 10.6217 12.0003C10.6217 11.7618 10.8152 11.5684 11.0536 11.5684H11.4115C11.65 11.5684 11.8434 11.7618 11.8434 12.0003C11.8434 12.2387 11.65 12.4322 11.4115 12.4322Z" fill="white"/>
<path d="M13.3783 12.0003C13.3783 11.7618 13.1851 11.5684 12.9464 11.5684H12.5887C12.35 11.5684 12.1568 11.7618 12.1568 12.0003C12.1568 12.2387 12.35 12.4322 12.5887 12.4322H12.9464C13.1851 12.4322 13.3783 12.2387 13.3783 12.0003Z" fill="white"/>
<path d="M13.1918 11.6445C13.1292 11.9205 13.0347 12.1842 12.9126 12.4319H12.9463C13.185 12.4319 13.3783 12.2384 13.3783 12C13.3783 11.8526 13.3045 11.7226 13.1918 11.6445Z" fill="#E5E2E6"/>
<defs>
<linearGradient id="paint0_linear_408:8051" x1="12" y1="1" x2="12" y2="23" gradientUnits="userSpaceOnUse">
<stop stop-color="#4486E1"/>
<stop offset="1" stop-color="#003379"/>
</linearGradient>
<linearGradient id="paint1_linear_408:8051" x1="12" y1="0.499744" x2="16.5" y2="22.4997" gradientUnits="userSpaceOnUse">
<stop stop-color="#5A8ED9"/>
<stop offset="1" stop-color="#0C3A7C"/>
</linearGradient>
</defs>
</svg>
