<?xml version="1.0" encoding="iso-8859-1"?>
<!-- Uploaded to: SVG Repo, www.svgrepo.com, Generator: SVG Repo Mixer Tools -->
<svg fill="#55657e" height="800px" width="800px" version="1.1" id="Layer_1" xmlns="http://www.w3.org/2000/svg" xmlns:xlink="http://www.w3.org/1999/xlink" 
	 viewBox="0 0 512.001 512.001" xml:space="preserve">
<g>
	<g>
		<path d="M379.872,173.607l-2.893-29.946c-2.765-28.621-16.013-55.03-37.3-74.36c-21.289-19.33-48.849-29.975-77.603-29.975
			c-28.754,0-56.314,10.646-77.602,29.975c-21.288,19.33-34.535,45.738-37.302,74.36l-2.893,29.945
			c-16.225,2.28-28.752,16.246-28.752,33.089c-0.001,15.099,9.939,27.881,23.763,32.018c1.937,26.203,15.323,50.76,36.919,66.45
			l44.5,32.331c12.371,8.988,26.869,13.482,41.367,13.482c14.498,0,28.995-4.495,41.367-13.482l44.5-32.331
			c21.597-15.691,34.983-40.248,36.919-66.453c13.824-4.139,23.764-16.92,23.764-32.015
			C408.625,189.855,396.098,175.891,379.872,173.607z M139.685,221.145c-4.76-3.053-7.897-8.379-7.897-14.449
			c0-7.226,4.497-13.411,10.834-15.937L139.685,221.145z M195.405,81.341c18.289-16.608,41.967-25.753,66.671-25.753
			s48.382,9.146,66.671,25.753c15.966,14.497,26.664,33.629,30.706,54.613c-42.449-3.097-89.002-25.362-89.5-25.601
			c-2.519-1.22-5.489-1.056-7.859,0.43c-2.371,1.487-3.81,4.089-3.81,6.888v22.544c-30.016-13.815-60.129-38.627-72.22-49.15
			C188.936,87.638,192.052,84.385,195.405,81.341z M176.629,104.441c4.224,3.659,10.106,8.594,17.155,14.089
			c-6.358,5.623-16.917,13.492-28.89,16.52C167.087,124.208,171.066,113.881,176.629,104.441z M338.385,292.008l-44.5,32.331
			c-19.026,13.823-44.592,13.824-63.618,0l-44.5-32.332c-21.09-15.323-32.635-40.961-30.127-66.911l7.062-73.073
			c19.753-2.806,36.283-15.98,44.354-23.566c16.611,11.902,36.819,24.386,56.587,31.547c0.9,0.326,1.836,0.487,2.769,0.487
			c1.649,0,3.283-0.502,4.669-1.473c2.17-1.522,3.462-4.007,3.462-6.657v-22.194c17.849,7.455,53.292,20.454,86.941,22.204
			l7.028,72.725C371.02,251.045,359.476,276.685,338.385,292.008z M384.466,221.141l-2.936-30.381
			c6.337,2.528,10.833,8.71,10.833,15.935C392.364,212.764,389.228,218.089,384.466,221.141z"/>
	</g>
</g>
<g>
	<g>
		<path d="M310.263,255.259c-3.175-3.175-8.323-3.175-11.499,0c-9.8,9.8-22.829,15.198-36.689,15.198s-26.889-5.398-36.689-15.198
			c-3.175-3.175-8.323-3.175-11.498,0c-3.175,3.175-3.175,8.323,0,11.498c12.871,12.872,29.984,19.96,48.188,19.96
			c18.203,0,35.316-7.089,48.187-19.96C313.439,263.581,313.439,258.433,310.263,255.259z"/>
	</g>
</g>
<g>
	<g>
		<path d="M213.816,195.432c-4.49,0-8.13,3.64-8.13,8.13v13.004c0,4.49,3.64,8.13,8.13,8.13c4.49,0,8.13-3.64,8.13-8.13v-13.004
			C221.947,199.072,218.307,195.432,213.816,195.432z"/>
	</g>
</g>
<g>
	<g>
		<path d="M334.672,166.375c-13.419-13.42-35.255-13.421-48.674,0c-3.175,3.175-3.175,8.323,0,11.498
			c3.175,3.175,8.323,3.175,11.498,0c7.079-7.079,18.598-7.08,25.679,0c1.587,1.587,3.668,2.382,5.749,2.382
			s4.162-0.794,5.749-2.382C337.847,174.697,337.847,169.549,334.672,166.375z"/>
	</g>
</g>
<g>
	<g>
		<path d="M238.155,166.376c-13.42-13.421-35.256-13.421-48.676,0c-3.175,3.175-3.175,8.323,0,11.498
			c3.175,3.175,8.323,3.175,11.498,0c7.08-7.079,18.599-7.079,25.68,0c1.587,1.587,3.668,2.382,5.749,2.382s4.162-0.794,5.749-2.382
			C241.33,174.698,241.33,169.55,238.155,166.376z"/>
	</g>
</g>
<g>
	<g>
		<path d="M310.335,195.432c-4.49,0-8.13,3.64-8.13,8.13v13.004c0,4.49,3.64,8.13,8.13,8.13s8.13-3.64,8.13-8.13v-13.004
			C318.465,199.072,314.825,195.432,310.335,195.432z"/>
	</g>
</g>
<g>
	<g>
		<path d="M185.226,470.556h-33.179v-94.194c0-18.307,9.359-34.918,25.033-44.435c3.839-2.331,5.06-7.331,2.731-11.169
			c-2.331-3.839-7.33-5.06-11.169-2.731c-20.573,12.491-32.856,34.298-32.856,58.335v102.325c0,4.49,3.64,8.13,8.13,8.13h41.309
			c4.49,0,8.13-3.64,8.13-8.13C193.357,474.197,189.717,470.556,185.226,470.556z"/>
	</g>
</g>
<g>
	<g>
		<path d="M347.717,470.556H212.328c-4.49,0-8.13,3.64-8.13,8.13s3.64,8.13,8.13,8.13h135.389c4.49,0,8.13-3.64,8.13-8.13
			S352.207,470.556,347.717,470.556z"/>
	</g>
</g>
<g>
	<g>
		<path d="M274.542,183.507c-4.49,0-8.13,3.64-8.13,8.13v38.484c0,2.391-1.945,4.336-4.336,4.336s-4.336-1.945-4.336-4.336v-38.484
			c0-4.49-3.64-8.13-8.13-8.13s-8.13,3.64-8.13,8.13v38.484c0,11.357,9.241,20.597,20.597,20.597
			c11.358,0,20.597-9.24,20.597-20.597v-38.484C282.673,187.147,279.033,183.507,274.542,183.507z"/>
	</g>
</g>
<g>
	<g>
		<path d="M482.529,71.938c-13.43,0-24.784,9.034-28.322,21.342h-2.419V82.979c12.307-3.538,21.342-14.892,21.342-28.322
			c0-16.251-13.221-29.472-29.472-29.472c-16.251,0-29.472,13.221-29.472,29.472c0,13.43,9.034,24.784,21.342,28.322V93.28h-2.42
			c-3.538-12.307-14.892-21.342-28.322-21.342c-16.251,0-29.472,13.221-29.472,29.472c0,16.251,13.221,29.471,29.472,29.471
			c13.43,0,24.784-9.034,28.322-21.342h2.42v35.568h-19.309c-4.49,0-8.13,3.64-8.13,8.13s3.64,8.13,8.13,8.13h54.879
			c4.49,0,8.13-3.64,8.13-8.13s-3.64-8.13-8.13-8.13h-19.308V109.54h2.419c3.538,12.307,14.892,21.342,28.322,21.342
			c16.251,0,29.472-13.221,29.472-29.472C512.001,85.159,498.78,71.938,482.529,71.938z M404.785,114.622
			c-7.285,0-13.211-5.927-13.211-13.211s5.927-13.211,13.211-13.211s13.211,5.927,13.211,13.211S412.07,114.622,404.785,114.622z
			 M443.657,67.867c-7.285,0-13.212-5.927-13.212-13.211s5.927-13.211,13.212-13.211s13.211,5.927,13.211,13.211
			S450.942,67.867,443.657,67.867z M482.529,114.622c-7.285,0-13.211-5.927-13.211-13.211s5.927-13.211,13.211-13.211
			s13.212,5.927,13.212,13.211S489.814,114.622,482.529,114.622z"/>
	</g>
</g>
<g>
	<g>
		<path d="M127.652,250.62H46.143c-10.5,0-19.042,8.542-19.042,19.042v110.352c0,4.49,3.64,8.13,8.13,8.13s8.13-3.64,8.13-8.13
			V269.662c0-1.534,1.248-2.781,2.781-2.781h81.509c4.49,0,8.13-3.64,8.13-8.13C135.782,254.261,132.142,250.62,127.652,250.62z"/>
	</g>
</g>
<g>
	<g>
		<path d="M121.103,425.003h-74.96c-1.534,0-2.781-1.248-2.781-2.781v-15.106c0-4.49-3.64-8.13-8.13-8.13s-8.13,3.64-8.13,8.13
			v15.106c0,10.5,8.542,19.042,19.042,19.042h74.96c4.49,0,8.13-3.64,8.13-8.13C129.233,428.643,125.593,425.003,121.103,425.003z"
			/>
	</g>
</g>
<g>
	<g>
		<path d="M139.703,316.177c-6.086-6.086-14.177-9.438-22.784-9.438c-6.121,0-11.98,1.694-17.043,4.862
			c-12.43-7.737-29.025-6.212-39.811,4.576c-12.563,12.562-12.563,33.004,0,45.568l34.07,34.07c1.525,1.525,3.593,2.382,5.749,2.382
			c2.156,0,4.225-0.856,5.749-2.382l22.702-22.702c3.175-3.175,3.175-8.323,0-11.498c-3.175-3.175-8.323-3.175-11.498,0
			l-16.954,16.951l-28.321-28.321c-6.222-6.224-6.222-16.349,0-22.571c3.015-3.014,7.024-4.674,11.286-4.674
			c4.264,0,8.271,1.661,11.286,4.676c1.524,1.525,3.593,2.382,5.749,2.382c2.156,0,4.225-0.856,5.749-2.382
			c3.015-3.015,7.023-4.676,11.286-4.676c4.264,0,8.271,1.661,11.286,4.676c3.175,3.175,8.323,3.175,11.498,0
			C142.879,324.499,142.879,319.351,139.703,316.177z"/>
	</g>
</g>
<g>
	<g>
		<path d="M121.103,452.104H19.042c-1.534,0-2.781-1.248-2.781-2.781v-152.56c0-4.49-3.64-8.13-8.13-8.13
			c-4.49,0-8.13,3.64-8.13,8.13v152.56c0,10.5,8.542,19.042,19.042,19.042h102.061c4.49,0,8.13-3.64,8.13-8.13
			C129.233,455.745,125.593,452.104,121.103,452.104z"/>
	</g>
</g>
<g>
	<g>
		<path d="M313.629,348.566c-2.515-1.453-5.615-1.453-8.13,0l-43.422,25.07l-43.423-25.07c-2.515-1.453-5.615-1.453-8.13,0
			c-2.515,1.453-4.065,4.136-4.065,7.041v54.835c0,2.905,1.55,5.588,4.065,7.041c1.258,0.726,2.661,1.089,4.065,1.089
			c1.404,0,2.808-0.363,4.065-1.089l43.423-25.07l43.422,25.07c1.258,0.726,2.661,1.089,4.065,1.089s2.808-0.363,4.065-1.089
			c2.515-1.453,4.065-4.136,4.065-7.041v-54.835C317.695,352.701,316.144,350.018,313.629,348.566z M222.719,396.359v-26.67
			l23.097,13.335L222.719,396.359z M301.434,396.359l-23.096-13.335l23.096-13.335V396.359z"/>
	</g>
</g>
<g>
	<g>
		<path d="M425.24,387.914v-28.431c4.067,2.661,6.763,7.248,6.763,12.46c0,4.49,3.64,8.13,8.13,8.13c4.49,0,8.13-3.64,8.13-8.13
			c0-14.365-9.777-26.484-23.024-30.068v-5.482c0-4.49-3.64-8.13-8.13-8.13s-8.13,3.64-8.13,8.13v5.484
			c-13.243,3.587-23.015,15.704-23.015,30.065s9.772,26.478,23.015,30.065v28.427c-4.061-2.661-6.754-7.247-6.754-12.455
			c0-4.49-3.64-8.13-8.13-8.13c-4.49,0-8.13,3.64-8.13,8.13c0,14.362,9.772,26.478,23.015,30.065v5.489c0,4.49,3.64,8.13,8.13,8.13
			s8.13-3.64,8.13-8.13v-5.486c13.247-3.584,23.024-15.703,23.024-30.068S438.487,391.498,425.24,387.914z M408.98,384.397
			c-4.062-2.661-6.754-7.246-6.754-12.454s2.693-9.792,6.754-12.455V384.397z M425.24,430.443v-24.92
			c4.067,2.66,6.763,7.248,6.763,12.46C432.004,423.195,429.307,427.781,425.24,430.443z"/>
	</g>
</g>
<g>
	<g>
		<path d="M417.111,307.924c-47.993,0-87.038,39.046-87.038,87.038c0,47.993,39.046,87.038,87.038,87.038
			c47.993,0,87.038-39.046,87.038-87.038C504.149,346.97,465.103,307.924,417.111,307.924z M417.111,465.74
			c-39.026,0-70.777-31.751-70.777-70.777c0-39.026,31.751-70.777,70.777-70.777s70.777,31.751,70.777,70.777
			C487.888,433.989,456.137,465.74,417.111,465.74z"/>
	</g>
</g>
<g>
	<g>
		<circle cx="262.072" cy="450.309" r="8.13"/>
	</g>
</g>
<g>
	<g>
		<circle cx="262.072" cy="420.313" r="8.13"/>
	</g>
</g>
</svg>